<svg width="1872" height="1000" viewBox="0 0 1872 1000" fill="none" xmlns="http://www.w3.org/2000/svg">
<path d="M1800.11 633.477L1970.48 758.3" stroke="white" stroke-width="2.44444" stroke-linecap="round"/>
<path d="M1526.93 687.363L1643.47 822.804" stroke="white" stroke-width="2.44444" stroke-linecap="round"/>
<path d="M1235.78 720.364L1294.94 862.308" stroke="white" stroke-width="2.44444" stroke-linecap="round"/>
<path d="M935.5 731.477V875.61" stroke="#FF4C00" stroke-width="2.44444" stroke-linecap="round"/>
<path d="M635.224 720.364L576.056 862.308" stroke="white" stroke-width="2.44444" stroke-linecap="round"/>
<path d="M344.072 687.363L227.534 822.804" stroke="white" stroke-width="2.44444" stroke-linecap="round"/>
<path d="M70.8893 633.477L-99.4773 758.3" stroke="white" stroke-width="2.44444" stroke-linecap="round"/>
<path d="M1850.07 573.561L1854.83 576.549" stroke="white" stroke-width="2.44444" stroke-linecap="round"/>
<path d="M1826.27 580.226L1830.91 583.248" stroke="white" stroke-width="2.44444" stroke-linecap="round"/>
<path d="M1802.19 586.713L1806.71 589.769" stroke="white" stroke-width="2.44444" stroke-linecap="round"/>
<path d="M1777.86 593.022L1782.24 596.111" stroke="white" stroke-width="2.44444" stroke-linecap="round"/>
<path d="M1753.26 599.151L1757.52 602.271" stroke="white" stroke-width="2.44444" stroke-linecap="round"/>
<path d="M1728.42 605.097L1732.55 608.248" stroke="white" stroke-width="2.44444" stroke-linecap="round"/>
<path d="M1703.33 610.858L1707.33 614.04" stroke="white" stroke-width="2.44444" stroke-linecap="round"/>
<path d="M1678.01 616.434L1681.88 619.644" stroke="white" stroke-width="2.44444" stroke-linecap="round"/>
<path d="M1652.46 621.822L1656.2 625.06" stroke="white" stroke-width="2.44444" stroke-linecap="round"/>
<path d="M1626.7 627.02L1630.3 630.286" stroke="white" stroke-width="2.44444" stroke-linecap="round"/>
<path d="M1600.73 632.027L1604.19 635.319" stroke="white" stroke-width="2.44444" stroke-linecap="round"/>
<path d="M1574.55 636.842L1577.88 640.159" stroke="white" stroke-width="2.44444" stroke-linecap="round"/>
<path d="M1548.18 641.463L1551.37 644.804" stroke="white" stroke-width="2.44444" stroke-linecap="round"/>
<path d="M1521.62 645.888L1524.67 649.252" stroke="white" stroke-width="2.44444" stroke-linecap="round"/>
<path d="M1494.88 650.117L1497.79 653.503" stroke="white" stroke-width="2.44444" stroke-linecap="round"/>
<path d="M1467.97 654.147L1470.75 657.554" stroke="white" stroke-width="2.44444" stroke-linecap="round"/>
<path d="M1440.9 657.979L1443.54 661.406" stroke="white" stroke-width="2.44444" stroke-linecap="round"/>
<path d="M1413.68 661.61L1416.17 665.056" stroke="white" stroke-width="2.44444" stroke-linecap="round"/>
<path d="M1386.31 665.039L1388.66 668.503" stroke="white" stroke-width="2.44444" stroke-linecap="round"/>
<path d="M1358.8 668.266L1361.01 671.747" stroke="white" stroke-width="2.44444" stroke-linecap="round"/>
<path d="M1331.17 671.289L1333.23 674.786" stroke="white" stroke-width="2.44444" stroke-linecap="round"/>
<path d="M1303.41 674.108L1305.33 677.619" stroke="white" stroke-width="2.44444" stroke-linecap="round"/>
<path d="M1275.54 676.722L1277.31 680.246" stroke="white" stroke-width="2.44444" stroke-linecap="round"/>
<path d="M1247.57 679.129L1249.2 682.666" stroke="white" stroke-width="2.44444" stroke-linecap="round"/>
<path d="M1219.51 681.329L1220.98 684.878" stroke="white" stroke-width="2.44444" stroke-linecap="round"/>
<path d="M1191.35 683.322L1192.68 686.881" stroke="white" stroke-width="2.44444" stroke-linecap="round"/>
<path d="M1163.12 685.107L1164.31 688.675" stroke="white" stroke-width="2.44444" stroke-linecap="round"/>
<path d="M1134.82 686.683L1135.86 690.26" stroke="white" stroke-width="2.44444" stroke-linecap="round"/>
<path d="M1106.46 688.05L1107.35 691.634" stroke="white" stroke-width="2.44444" stroke-linecap="round"/>
<path d="M1078.04 689.207L1078.79 692.797" stroke="white" stroke-width="2.44444" stroke-linecap="round"/>
<path d="M1049.59 690.155L1050.18 693.749" stroke="white" stroke-width="2.44444" stroke-linecap="round"/>
<path d="M1021.1 690.892L1021.54 694.49" stroke="white" stroke-width="2.44444" stroke-linecap="round"/>
<path d="M992.579 691.418L992.877 695.02" stroke="white" stroke-width="2.44444" stroke-linecap="round"/>
<path d="M964.044 691.735L964.193 695.337" stroke="white" stroke-width="2.44444" stroke-linecap="round"/>
<path d="M935.5 691.84V695.443" stroke="white" stroke-width="2.44444" stroke-linecap="round"/>
<path d="M935.5 695.443L931.628 690.53H939.372L935.5 695.443Z" fill="#FF4C00" stroke="#FF4C00" stroke-width="2.44444"/>
<path d="M906.956 691.735L906.808 695.337" stroke="white" stroke-width="2.44444" stroke-linecap="round"/>
<path d="M878.422 691.418L878.124 695.02" stroke="white" stroke-width="2.44444" stroke-linecap="round"/>
<path d="M849.904 690.892L849.458 694.49" stroke="white" stroke-width="2.44444" stroke-linecap="round"/>
<path d="M821.413 690.155L820.818 693.749" stroke="white" stroke-width="2.44444" stroke-linecap="round"/>
<path d="M792.956 689.207L792.212 692.797" stroke="white" stroke-width="2.44444" stroke-linecap="round"/>
<path d="M764.543 688.05L763.651 691.634" stroke="white" stroke-width="2.44444" stroke-linecap="round"/>
<path d="M736.182 686.683L735.142 690.26" stroke="white" stroke-width="2.44444" stroke-linecap="round"/>
<path d="M707.881 685.107L706.694 688.675" stroke="white" stroke-width="2.44444" stroke-linecap="round"/>
<path d="M679.648 683.322L678.316 686.881" stroke="white" stroke-width="2.44444" stroke-linecap="round"/>
<path d="M651.495 681.329L650.016 684.878" stroke="white" stroke-width="2.44444" stroke-linecap="round"/>
<path d="M623.428 679.129L621.803 682.666" stroke="white" stroke-width="2.44444" stroke-linecap="round"/>
<path d="M595.456 676.722L593.685 680.246" stroke="white" stroke-width="2.44444" stroke-linecap="round"/>
<path d="M567.588 674.108L565.672 677.619" stroke="white" stroke-width="2.44444" stroke-linecap="round"/>
<path d="M539.832 671.289L537.771 674.786" stroke="white" stroke-width="2.44444" stroke-linecap="round"/>
<path d="M512.196 668.266L509.992 671.747" stroke="white" stroke-width="2.44444" stroke-linecap="round"/>
<path d="M484.69 665.039L482.342 668.503" stroke="white" stroke-width="2.44444" stroke-linecap="round"/>
<path d="M457.32 661.61L454.83 665.056" stroke="white" stroke-width="2.44444" stroke-linecap="round"/>
<path d="M430.097 657.979L427.464 661.406" stroke="white" stroke-width="2.44444" stroke-linecap="round"/>
<path d="M403.027 654.147L400.254 657.554" stroke="white" stroke-width="2.44444" stroke-linecap="round"/>
<path d="M376.119 650.117L373.206 653.503" stroke="white" stroke-width="2.44444" stroke-linecap="round"/>
<path d="M349.382 645.888L346.329 649.252" stroke="white" stroke-width="2.44444" stroke-linecap="round"/>
<path d="M322.824 641.463L319.633 644.804" stroke="white" stroke-width="2.44444" stroke-linecap="round"/>
<path d="M296.452 636.842L293.123 640.159" stroke="white" stroke-width="2.44444" stroke-linecap="round"/>
<path d="M270.274 632.027L266.809 635.319" stroke="white" stroke-width="2.44444" stroke-linecap="round"/>
<path d="M244.3 627.02L240.699 630.286" stroke="white" stroke-width="2.44444" stroke-linecap="round"/>
<path d="M218.535 621.822L214.801 625.06" stroke="white" stroke-width="2.44444" stroke-linecap="round"/>
<path d="M192.99 616.434L189.122 619.644" stroke="white" stroke-width="2.44444" stroke-linecap="round"/>
<path d="M167.67 610.858L163.671 614.04" stroke="white" stroke-width="2.44444" stroke-linecap="round"/>
<path d="M142.584 605.097L138.454 608.248" stroke="white" stroke-width="2.44444" stroke-linecap="round"/>
<path d="M117.74 599.151L113.481 602.271" stroke="white" stroke-width="2.44444" stroke-linecap="round"/>
<path d="M93.145 593.022L88.7577 596.111" stroke="white" stroke-width="2.44444" stroke-linecap="round"/>
<path d="M68.8064 586.713L64.2924 589.769" stroke="white" stroke-width="2.44444" stroke-linecap="round"/>
<path d="M44.7321 580.226L40.0927 583.248" stroke="white" stroke-width="2.44444" stroke-linecap="round"/>
<path d="M20.9289 573.561L16.1655 576.549" stroke="white" stroke-width="2.44444" stroke-linecap="round"/>
<path d="M2622.13 -2.52342e-05C2622.13 189.221 2444.43 370.693 2128.13 504.492C1811.82 638.292 1382.82 713.46 935.5 713.46C488.178 713.46 59.1772 638.292 -257.127 504.492C-573.432 370.693 -751.13 189.221 -751.13 0.000118198C-751.13 -189.221 -573.432 -370.693 -257.127 -504.492C59.177 -638.292 488.178 -713.46 935.5 -713.46C1382.82 -713.46 1811.82 -638.292 2128.13 -504.493C2444.43 -370.693 2622.13 -189.221 2622.13 -2.52342e-05Z" stroke="white" stroke-opacity="0.2" stroke-width="4.88889"/>
<path d="M1864.13 663.558L1881.49 675.961" stroke="white" stroke-opacity="0.3" stroke-width="2.44444" stroke-linecap="round"/>
<path d="M1846.96 667.804L1864 680.286" stroke="white" stroke-opacity="0.3" stroke-width="2.44444" stroke-linecap="round"/>
<path d="M1829.69 671.97L1846.4 684.53" stroke="white" stroke-opacity="0.3" stroke-width="2.44444" stroke-linecap="round"/>
<path d="M1812.31 676.056L1828.7 688.692" stroke="white" stroke-opacity="0.3" stroke-width="2.44444" stroke-linecap="round"/>
<path d="M1794.82 680.061L1810.88 692.772" stroke="white" stroke-opacity="0.3" stroke-width="2.44444" stroke-linecap="round"/>
<path d="M1777.23 683.986L1792.97 696.77" stroke="white" stroke-opacity="0.3" stroke-width="2.44444" stroke-linecap="round"/>
<path d="M1759.54 687.829L1774.95 700.686" stroke="white" stroke-opacity="0.3" stroke-width="2.44444" stroke-linecap="round"/>
<path d="M1741.76 691.59L1756.83 704.517" stroke="white" stroke-opacity="0.3" stroke-width="2.44444" stroke-linecap="round"/>
<path d="M1723.88 695.269L1738.61 708.265" stroke="white" stroke-opacity="0.3" stroke-width="2.44444" stroke-linecap="round"/>
<path d="M1705.9 698.866L1720.3 711.929" stroke="white" stroke-opacity="0.3" stroke-width="2.44444" stroke-linecap="round"/>
<path d="M1687.83 702.379L1701.9 715.508" stroke="white" stroke-opacity="0.3" stroke-width="2.44444" stroke-linecap="round"/>
<path d="M1669.68 705.809L1683.4 719.002" stroke="white" stroke-opacity="0.3" stroke-width="2.44444" stroke-linecap="round"/>
<path d="M1651.43 709.154L1664.81 722.41" stroke="white" stroke-opacity="0.3" stroke-width="2.44444" stroke-linecap="round"/>
<path d="M1633.1 712.416L1646.14 725.732" stroke="white" stroke-opacity="0.3" stroke-width="2.44444" stroke-linecap="round"/>
<path d="M1614.69 715.592L1627.39 728.968" stroke="white" stroke-opacity="0.3" stroke-width="2.44444" stroke-linecap="round"/>
<path d="M1596.2 718.684L1608.55 732.117" stroke="white" stroke-opacity="0.3" stroke-width="2.44444" stroke-linecap="round"/>
<path d="M1577.62 721.689L1589.63 735.179" stroke="white" stroke-opacity="0.3" stroke-width="2.44444" stroke-linecap="round"/>
<path d="M1558.98 724.609L1570.63 738.154" stroke="white" stroke-opacity="0.3" stroke-width="2.44444" stroke-linecap="round"/>
<path d="M1540.25 727.443L1551.56 741.04" stroke="white" stroke-opacity="0.3" stroke-width="2.44444" stroke-linecap="round"/>
<path d="M1521.46 730.19L1532.41 743.839" stroke="white" stroke-opacity="0.3" stroke-width="2.44444" stroke-linecap="round"/>
<path d="M1502.6 732.851L1513.2 746.549" stroke="white" stroke-opacity="0.3" stroke-width="2.44444" stroke-linecap="round"/>
<path d="M1483.66 735.424L1493.91 749.17" stroke="white" stroke-opacity="0.3" stroke-width="2.44444" stroke-linecap="round"/>
<path d="M1464.67 737.909L1474.56 751.702" stroke="white" stroke-opacity="0.3" stroke-width="2.44444" stroke-linecap="round"/>
<path d="M1445.61 740.307L1455.14 754.145" stroke="white" stroke-opacity="0.3" stroke-width="2.44444" stroke-linecap="round"/>
<path d="M1426.49 742.617L1435.66 756.497" stroke="white" stroke-opacity="0.3" stroke-width="2.44444" stroke-linecap="round"/>
<path d="M1407.31 744.838L1416.13 758.76" stroke="white" stroke-opacity="0.3" stroke-width="2.44444" stroke-linecap="round"/>
<path d="M1388.07 746.971L1396.53 760.933" stroke="white" stroke-opacity="0.3" stroke-width="2.44444" stroke-linecap="round"/>
<path d="M1368.78 749.015L1376.88 763.015" stroke="white" stroke-opacity="0.3" stroke-width="2.44444" stroke-linecap="round"/>
<path d="M1349.44 750.969L1357.18 765.006" stroke="white" stroke-opacity="0.3" stroke-width="2.44444" stroke-linecap="round"/>
<path d="M1330.05 752.835L1337.43 766.906" stroke="white" stroke-opacity="0.3" stroke-width="2.44444" stroke-linecap="round"/>
<path d="M1310.62 754.61L1317.63 768.715" stroke="white" stroke-opacity="0.3" stroke-width="2.44444" stroke-linecap="round"/>
<path d="M1291.14 756.297L1297.78 770.433" stroke="white" stroke-opacity="0.3" stroke-width="2.44444" stroke-linecap="round"/>
<path d="M1271.61 757.892L1277.89 772.059" stroke="white" stroke-opacity="0.3" stroke-width="2.44444" stroke-linecap="round"/>
<path d="M1252.05 759.398L1257.96 773.593" stroke="white" stroke-opacity="0.3" stroke-width="2.44444" stroke-linecap="round"/>
<path d="M1232.45 760.814L1238 775.034" stroke="white" stroke-opacity="0.3" stroke-width="2.44444" stroke-linecap="round"/>
<path d="M1212.81 762.139L1217.99 776.384" stroke="white" stroke-opacity="0.3" stroke-width="2.44444" stroke-linecap="round"/>
<path d="M1193.14 763.373L1197.96 777.641" stroke="white" stroke-opacity="0.3" stroke-width="2.44444" stroke-linecap="round"/>
<path d="M1173.44 764.516L1177.89 778.806" stroke="white" stroke-opacity="0.3" stroke-width="2.44444" stroke-linecap="round"/>
<path d="M1153.71 765.568L1157.79 779.878" stroke="white" stroke-opacity="0.3" stroke-width="2.44444" stroke-linecap="round"/>
<path d="M1133.96 766.53L1137.67 780.858" stroke="white" stroke-opacity="0.3" stroke-width="2.44444" stroke-linecap="round"/>
<path d="M1114.18 767.4L1117.52 781.744" stroke="white" stroke-opacity="0.3" stroke-width="2.44444" stroke-linecap="round"/>
<path d="M1094.38 768.179L1097.35 782.537" stroke="white" stroke-opacity="0.3" stroke-width="2.44444" stroke-linecap="round"/>
<path d="M1074.56 768.866L1077.16 783.238" stroke="white" stroke-opacity="0.3" stroke-width="2.44444" stroke-linecap="round"/>
<path d="M1054.73 769.462L1056.95 783.845" stroke="white" stroke-opacity="0.3" stroke-width="2.44444" stroke-linecap="round"/>
<path d="M1034.88 769.967L1036.73 784.358" stroke="white" stroke-opacity="0.3" stroke-width="2.44444" stroke-linecap="round"/>
<path d="M1015.01 770.379L1016.5 784.779" stroke="white" stroke-opacity="0.3" stroke-width="2.44444" stroke-linecap="round"/>
<path d="M995.144 770.7L996.26 785.106" stroke="white" stroke-opacity="0.3" stroke-width="2.44444" stroke-linecap="round"/>
<path d="M975.267 770.93L976.011 785.34" stroke="white" stroke-opacity="0.3" stroke-width="2.44444" stroke-linecap="round"/>
<path d="M955.385 771.067L955.757 785.48" stroke="white" stroke-opacity="0.3" stroke-width="2.44444" stroke-linecap="round"/>
<path d="M915.616 771.067L915.244 785.48" stroke="white" stroke-opacity="0.3" stroke-width="2.44444" stroke-linecap="round"/>
<path d="M895.734 770.93L894.99 785.34" stroke="white" stroke-opacity="0.3" stroke-width="2.44444" stroke-linecap="round"/>
<path d="M875.857 770.7L874.741 785.106" stroke="white" stroke-opacity="0.3" stroke-width="2.44444" stroke-linecap="round"/>
<path d="M855.986 770.379L854.499 784.779" stroke="white" stroke-opacity="0.3" stroke-width="2.44444" stroke-linecap="round"/>
<path d="M836.124 769.967L834.267 784.358" stroke="white" stroke-opacity="0.3" stroke-width="2.44444" stroke-linecap="round"/>
<path d="M816.275 769.462L814.047 783.845" stroke="white" stroke-opacity="0.3" stroke-width="2.44444" stroke-linecap="round"/>
<path d="M796.44 768.866L793.841 783.238" stroke="white" stroke-opacity="0.3" stroke-width="2.44444" stroke-linecap="round"/>
<path d="M776.622 768.179L773.652 782.537" stroke="white" stroke-opacity="0.3" stroke-width="2.44444" stroke-linecap="round"/>
<path d="M756.822 767.4L753.482 781.744" stroke="white" stroke-opacity="0.3" stroke-width="2.44444" stroke-linecap="round"/>
<path d="M737.044 766.53L733.335 780.858" stroke="white" stroke-opacity="0.3" stroke-width="2.44444" stroke-linecap="round"/>
<path d="M717.289 765.568L713.211 779.878" stroke="white" stroke-opacity="0.3" stroke-width="2.44444" stroke-linecap="round"/>
<path d="M697.561 764.516L693.114 778.806" stroke="white" stroke-opacity="0.3" stroke-width="2.44444" stroke-linecap="round"/>
<path d="M677.861 763.373L673.045 777.641" stroke="white" stroke-opacity="0.3" stroke-width="2.44444" stroke-linecap="round"/>
<path d="M658.191 762.139L653.008 776.384" stroke="white" stroke-opacity="0.3" stroke-width="2.44444" stroke-linecap="round"/>
<path d="M638.554 760.814L633.004 775.034" stroke="white" stroke-opacity="0.3" stroke-width="2.44444" stroke-linecap="round"/>
<path d="M618.953 759.398L613.036 773.593" stroke="white" stroke-opacity="0.3" stroke-width="2.44444" stroke-linecap="round"/>
<path d="M599.389 757.892L593.107 772.059" stroke="white" stroke-opacity="0.3" stroke-width="2.44444" stroke-linecap="round"/>
<path d="M579.865 756.297L573.218 770.433" stroke="white" stroke-opacity="0.3" stroke-width="2.44444" stroke-linecap="round"/>
<path d="M560.384 754.61L553.372 768.715" stroke="white" stroke-opacity="0.3" stroke-width="2.44444" stroke-linecap="round"/>
<path d="M540.947 752.835L533.572 766.906" stroke="white" stroke-opacity="0.3" stroke-width="2.44444" stroke-linecap="round"/>
<path d="M521.558 750.969L513.82 765.006" stroke="white" stroke-opacity="0.3" stroke-width="2.44444" stroke-linecap="round"/>
<path d="M502.217 749.015L494.118 763.015" stroke="white" stroke-opacity="0.3" stroke-width="2.44444" stroke-linecap="round"/>
<path d="M482.928 746.971L474.469 760.933" stroke="white" stroke-opacity="0.3" stroke-width="2.44444" stroke-linecap="round"/>
<path d="M463.693 744.838L454.874 758.76" stroke="white" stroke-opacity="0.3" stroke-width="2.44444" stroke-linecap="round"/>
<path d="M444.514 742.617L435.336 756.497" stroke="white" stroke-opacity="0.3" stroke-width="2.44444" stroke-linecap="round"/>
<path d="M425.393 740.307L415.859 754.145" stroke="white" stroke-opacity="0.3" stroke-width="2.44444" stroke-linecap="round"/>
<path d="M406.333 737.909L396.442 751.702" stroke="white" stroke-opacity="0.3" stroke-width="2.44444" stroke-linecap="round"/>
<path d="M387.337 735.424L377.09 749.17" stroke="white" stroke-opacity="0.3" stroke-width="2.44444" stroke-linecap="round"/>
<path d="M368.405 732.851L357.805 746.549" stroke="white" stroke-opacity="0.3" stroke-width="2.44444" stroke-linecap="round"/>
<path d="M349.541 730.19L338.588 743.839" stroke="white" stroke-opacity="0.3" stroke-width="2.44444" stroke-linecap="round"/>
<path d="M330.746 727.443L319.442 741.04" stroke="white" stroke-opacity="0.3" stroke-width="2.44444" stroke-linecap="round"/>
<path d="M312.024 724.609L300.37 738.154" stroke="white" stroke-opacity="0.3" stroke-width="2.44444" stroke-linecap="round"/>
<path d="M293.375 721.689L281.373 735.179" stroke="white" stroke-opacity="0.3" stroke-width="2.44444" stroke-linecap="round"/>
<path d="M274.804 718.684L262.454 732.117" stroke="white" stroke-opacity="0.3" stroke-width="2.44444" stroke-linecap="round"/>
<path d="M256.31 715.592L243.615 728.968" stroke="white" stroke-opacity="0.3" stroke-width="2.44444" stroke-linecap="round"/>
<path d="M237.898 712.416L224.858 725.732" stroke="white" stroke-opacity="0.3" stroke-width="2.44444" stroke-linecap="round"/>
<path d="M219.568 709.154L206.186 722.41" stroke="white" stroke-opacity="0.3" stroke-width="2.44444" stroke-linecap="round"/>
<path d="M201.324 705.809L187.601 719.002" stroke="white" stroke-opacity="0.3" stroke-width="2.44444" stroke-linecap="round"/>
<path d="M183.167 702.379L169.104 715.508" stroke="white" stroke-opacity="0.3" stroke-width="2.44444" stroke-linecap="round"/>
<path d="M165.1 698.866L150.699 711.929" stroke="white" stroke-opacity="0.3" stroke-width="2.44444" stroke-linecap="round"/>
<path d="M147.124 695.269L132.388 708.265" stroke="white" stroke-opacity="0.3" stroke-width="2.44444" stroke-linecap="round"/>
<path d="M129.242 691.59L114.172 704.517" stroke="white" stroke-opacity="0.3" stroke-width="2.44444" stroke-linecap="round"/>
<path d="M111.456 687.829L96.0531 700.686" stroke="white" stroke-opacity="0.3" stroke-width="2.44444" stroke-linecap="round"/>
<path d="M93.7677 683.986L78.0343 696.77" stroke="white" stroke-opacity="0.3" stroke-width="2.44444" stroke-linecap="round"/>
<path d="M76.1802 680.061L60.1182 692.772" stroke="white" stroke-opacity="0.3" stroke-width="2.44444" stroke-linecap="round"/>
<path d="M58.6944 676.056L42.3055 688.692" stroke="white" stroke-opacity="0.3" stroke-width="2.44444" stroke-linecap="round"/>
<path d="M41.3131 671.97L24.5994 684.53" stroke="white" stroke-opacity="0.3" stroke-width="2.44444" stroke-linecap="round"/>
<path d="M24.0386 667.804L7.00183 680.286" stroke="white" stroke-opacity="0.3" stroke-width="2.44444" stroke-linecap="round"/>
<path d="M6.87215 663.558L-10.4854 675.961" stroke="white" stroke-opacity="0.3" stroke-width="2.44444" stroke-linecap="round"/>
<path d="M1865.57 717.124L1906.54 748.716" stroke="#999999" stroke-opacity="0.15" stroke-width="2.44444" stroke-linecap="round"/>
<path d="M1828.37 725.536L1867.7 757.498" stroke="#999999" stroke-opacity="0.15" stroke-width="2.44444" stroke-linecap="round"/>
<path d="M1790.74 733.603L1828.41 765.92" stroke="#999999" stroke-opacity="0.15" stroke-width="2.44444" stroke-linecap="round"/>
<path d="M1752.7 741.32L1788.7 773.978" stroke="#999999" stroke-opacity="0.15" stroke-width="2.44444" stroke-linecap="round"/>
<path d="M1714.28 748.685L1748.58 781.667" stroke="#999999" stroke-opacity="0.15" stroke-width="2.44444" stroke-linecap="round"/>
<path d="M1675.48 755.693L1708.08 788.984" stroke="#999999" stroke-opacity="0.15" stroke-width="2.44444" stroke-linecap="round"/>
<path d="M1636.33 762.342L1667.21 795.925" stroke="#999999" stroke-opacity="0.15" stroke-width="2.44444" stroke-linecap="round"/>
<path d="M1596.85 768.628L1625.99 802.488" stroke="#999999" stroke-opacity="0.15" stroke-width="2.44444" stroke-linecap="round"/>
<path d="M1557.06 774.548L1584.44 808.669" stroke="#999999" stroke-opacity="0.15" stroke-width="2.44444" stroke-linecap="round"/>
<path d="M1516.96 780.099L1542.58 814.465" stroke="#999999" stroke-opacity="0.15" stroke-width="2.44444" stroke-linecap="round"/>
<path d="M1476.59 785.279L1500.43 819.873" stroke="#999999" stroke-opacity="0.15" stroke-width="2.44444" stroke-linecap="round"/>
<path d="M1435.97 790.086L1458.02 824.891" stroke="#999999" stroke-opacity="0.15" stroke-width="2.44444" stroke-linecap="round"/>
<path d="M1395.1 794.516L1415.35 829.516" stroke="#999999" stroke-opacity="0.15" stroke-width="2.44444" stroke-linecap="round"/>
<path d="M1354.02 798.568L1372.46 833.747" stroke="#999999" stroke-opacity="0.15" stroke-width="2.44444" stroke-linecap="round"/>
<path d="M1312.74 802.24L1329.36 837.581" stroke="#999999" stroke-opacity="0.15" stroke-width="2.44444" stroke-linecap="round"/>
<path d="M1271.28 805.53L1286.07 841.016" stroke="#999999" stroke-opacity="0.15" stroke-width="2.44444" stroke-linecap="round"/>
<path d="M1229.66 808.437L1242.61 844.051" stroke="#999999" stroke-opacity="0.15" stroke-width="2.44444" stroke-linecap="round"/>
<path d="M1187.89 810.959L1199.01 846.684" stroke="#999999" stroke-opacity="0.15" stroke-width="2.44444" stroke-linecap="round"/>
<path d="M1146.01 813.095L1155.29 848.914" stroke="#999999" stroke-opacity="0.15" stroke-width="2.44444" stroke-linecap="round"/>
<path d="M1104.03 814.844L1111.45 850.74" stroke="#999999" stroke-opacity="0.15" stroke-width="2.44444" stroke-linecap="round"/>
<path d="M1061.97 816.205L1067.54 852.161" stroke="#999999" stroke-opacity="0.15" stroke-width="2.44444" stroke-linecap="round"/>
<path d="M1019.85 817.178L1023.56 853.177" stroke="#999999" stroke-opacity="0.15" stroke-width="2.44444" stroke-linecap="round"/>
<path d="M977.683 817.762L979.541 853.786" stroke="#999999" stroke-opacity="0.15" stroke-width="2.44444" stroke-linecap="round"/>
<path d="M935.5 817.957V853.99" stroke="#999999" stroke-opacity="0.15" stroke-width="2.44444" stroke-linecap="round"/>
<path d="M893.318 817.762L891.459 853.786" stroke="#999999" stroke-opacity="0.15" stroke-width="2.44444" stroke-linecap="round"/>
<path d="M851.155 817.178L847.439 853.177" stroke="#999999" stroke-opacity="0.15" stroke-width="2.44444" stroke-linecap="round"/>
<path d="M809.033 816.205L803.462 852.161" stroke="#999999" stroke-opacity="0.15" stroke-width="2.44444" stroke-linecap="round"/>
<path d="M766.971 814.844L759.546 850.74" stroke="#999999" stroke-opacity="0.15" stroke-width="2.44444" stroke-linecap="round"/>
<path d="M724.988 813.095L715.715 848.914" stroke="#999999" stroke-opacity="0.15" stroke-width="2.44444" stroke-linecap="round"/>
<path d="M683.107 810.959L671.988 846.684" stroke="#999999" stroke-opacity="0.15" stroke-width="2.44444" stroke-linecap="round"/>
<path d="M641.345 808.437L628.386 844.051" stroke="#999999" stroke-opacity="0.15" stroke-width="2.44444" stroke-linecap="round"/>
<path d="M599.724 805.53L584.932 841.016" stroke="#999999" stroke-opacity="0.15" stroke-width="2.44444" stroke-linecap="round"/>
<path d="M558.261 802.24L541.643 837.581" stroke="#999999" stroke-opacity="0.15" stroke-width="2.44444" stroke-linecap="round"/>
<path d="M516.979 798.568L498.542 833.747" stroke="#999999" stroke-opacity="0.15" stroke-width="2.44444" stroke-linecap="round"/>
<path d="M475.896 794.516L455.649 829.516" stroke="#999999" stroke-opacity="0.15" stroke-width="2.44444" stroke-linecap="round"/>
<path d="M435.031 790.086L412.984 824.891" stroke="#999999" stroke-opacity="0.15" stroke-width="2.44444" stroke-linecap="round"/>
<path d="M394.405 785.279L370.569 819.873" stroke="#999999" stroke-opacity="0.15" stroke-width="2.44444" stroke-linecap="round"/>
<path d="M354.037 780.099L328.422 814.465" stroke="#999999" stroke-opacity="0.15" stroke-width="2.44444" stroke-linecap="round"/>
<path d="M313.945 774.548L286.564 808.669" stroke="#999999" stroke-opacity="0.15" stroke-width="2.44444" stroke-linecap="round"/>
<path d="M274.149 768.628L245.015 802.488" stroke="#999999" stroke-opacity="0.15" stroke-width="2.44444" stroke-linecap="round"/>
<path d="M234.668 762.342L203.794 795.925" stroke="#999999" stroke-opacity="0.15" stroke-width="2.44444" stroke-linecap="round"/>
<path d="M195.52 755.693L162.922 788.984" stroke="#999999" stroke-opacity="0.15" stroke-width="2.44444" stroke-linecap="round"/>
<path d="M156.724 748.685L122.417 781.667" stroke="#999999" stroke-opacity="0.15" stroke-width="2.44444" stroke-linecap="round"/>
<path d="M118.299 741.32L82.2994 773.978" stroke="#999999" stroke-opacity="0.15" stroke-width="2.44444" stroke-linecap="round"/>
<path d="M80.2636 733.603L42.5879 765.92" stroke="#999999" stroke-opacity="0.15" stroke-width="2.44444" stroke-linecap="round"/>
<path d="M42.6346 725.536L3.30127 757.498" stroke="#999999" stroke-opacity="0.15" stroke-width="2.44444" stroke-linecap="round"/>
<path d="M5.43057 717.124L-35.5417 748.716" stroke="#999999" stroke-opacity="0.15" stroke-width="2.44444" stroke-linecap="round"/>
</svg>
