<svg width="124" height="124" viewBox="0 0 124 124" fill="none" xmlns="http://www.w3.org/2000/svg">
<path d="M105.916 25.8335H64.583V98.1668H105.916C107.345 98.1668 108.5 97.0121 108.5 95.5835V28.4168C108.5 26.9882 107.345 25.8335 105.916 25.8335Z" fill="#4CAF50"/>
<path d="M82.6663 38.75H100.75V46.5H82.6663V38.75ZM82.6663 64.5833H100.75V72.3333H82.6663V64.5833ZM82.6663 77.5H100.75V85.25H82.6663V77.5ZM82.6663 51.6667H100.75V59.4167H82.6663V51.6667ZM64.583 38.75H77.4997V46.5H64.583V38.75ZM64.583 64.5833H77.4997V72.3333H64.583V64.5833ZM64.583 77.5H77.4997V85.25H64.583V77.5ZM64.583 51.6667H77.4997V59.4167H64.583V51.6667Z" fill="white"/>
<path d="M69.75 108.5L15.5 98.1667V25.8333L69.75 15.5V108.5Z" fill="#2E7D32"/>
<path d="M49.417 80.0832L43.1886 68.3006C42.9509 67.8588 42.7081 67.0528 42.4549 65.8774H42.3593C42.2405 66.4328 41.9615 67.275 41.5223 68.4065L35.2681 80.0832H25.5625L37.0893 61.9973L26.5416 43.9165H36.4538L41.6231 54.7562C42.0261 55.6113 42.3877 56.6291 42.7081 57.8019H42.8114C43.0129 57.1018 43.3901 56.0453 43.9455 54.6503L49.696 43.9165H58.7764L47.929 61.8423L59.0787 80.078H49.417V80.0832Z" fill="white"/>
</svg>
