<svg preserveAspectRatio="none" width="100%" height="100%" overflow="visible" style="display: block;" viewBox="0 0 70 105" fill="none" xmlns="http://www.w3.org/2000/svg">
<g id="Figma_Symbol_0 1" clip-path="url(#clip0_0_69)">
<g id="Vector">
</g>
<path id="Vector_2" d="M35 52.5C35 42.9336 42.7552 35.1782 52.3218 35.1782C61.8883 35.1782 69.6437 42.9336 69.6437 52.5C69.6437 62.0667 61.8883 69.8218 52.3218 69.8218C42.7552 69.8218 35 62.0667 35 52.5Z" fill="var(--fill-0, #1ABCFE)"/>
<path id="Vector_3" d="M0.356327 87.1437C0.356327 77.5772 8.11157 69.8218 17.6782 69.8218H35V87.1437C35 96.7103 27.2448 104.466 17.6782 104.466C8.11157 104.466 0.356327 96.7103 0.356327 87.1437Z" fill="var(--fill-0, #0ACF83)"/>
<path id="Vector_4" d="M35 0.534591V35.1782H52.3218C61.8885 35.1782 69.6437 27.423 69.6437 17.8564C69.6437 8.28985 61.8885 0.534591 52.3218 0.534591H35Z" fill="var(--fill-0, #FF7262)"/>
<path id="Vector_5" d="M0.356327 17.8564C0.356327 27.423 8.11157 35.1782 17.6782 35.1782H35V0.534579H17.6782C8.11157 0.534579 0.356327 8.28982 0.356327 17.8564Z" fill="var(--fill-0, #F24E1E)"/>
<path id="Vector_6" d="M0.356327 52.5C0.356327 62.0667 8.11157 69.8218 17.6782 69.8218H35V35.1782H17.6782C8.11157 35.1782 0.356327 42.9336 0.356327 52.5Z" fill="var(--fill-0, #A259FF)"/>
</g>
<defs>
<clipPath id="clip0_0_69">
<rect width="70" height="105" fill="white"/>
</clipPath>
</defs>
</svg>
