<svg preserveAspectRatio="none" width="100%" height="100%" overflow="visible" style="display: block;" viewBox="0 0 180 180" fill="none" xmlns="http://www.w3.org/2000/svg">
<g id="circle">
<rect width="180" height="180" rx="90" fill="var(--fill-0, black)"/>
<path id="Vector" d="M70.4256 32.7764C75.2428 30.811 80.487 30.1009 85.6591 30.7138C92.3258 31.474 98.2658 34.2837 103.479 39.1427C103.546 39.2088 103.639 39.2551 103.726 39.2816C103.82 39.3045 103.918 39.3045 104.012 39.2816C110.79 37.5459 117.965 38.1882 124.319 41.0996L124.633 41.245L125.406 41.6218C132.058 44.9651 137.246 50.6062 139.993 57.4815C141.386 60.8531 142.079 64.3635 142.093 68.026C142.193 70.7498 141.892 73.4736 141.199 76.1112C141.165 76.2444 141.166 76.384 141.201 76.5169C141.236 76.6499 141.304 76.7718 141.399 76.8715C145.359 80.8843 147.986 85.6641 149.286 91.2173C151.213 100.638 149.239 109.133 143.373 116.696L142.466 117.793C138.58 122.204 133.481 125.393 127.793 126.969C127.669 127.005 127.556 127.069 127.462 127.157C127.368 127.244 127.297 127.352 127.253 127.472C125.979 131.114 124.699 134.235 122.319 137.349C116.319 145.196 107.506 149.552 97.5791 149.5C89.6657 149.46 82.6524 146.591 76.5323 140.892C76.4402 140.807 76.3269 140.747 76.2039 140.719C76.081 140.691 75.9527 140.696 75.8323 140.733C73.2457 141.56 70.6323 141.679 67.8056 141.646C63.3034 141.61 58.8687 140.556 54.8389 138.565C50.6177 136.491 46.9426 133.469 44.1055 129.739C43.0922 128.404 42.0855 127.148 41.3455 125.66C40.3353 123.619 39.5098 121.493 38.8788 119.307C37.5468 114.333 37.5147 109.105 38.7855 104.115C38.8273 103.997 38.841 103.87 38.8255 103.745C38.8027 103.622 38.7393 103.511 38.6455 103.428C35.5659 100.337 33.2122 96.6099 31.7521 92.513C30.7811 89.9895 30.2164 87.3303 30.0788 84.6328C29.8366 81.0799 30.1537 77.5113 31.0188 74.0552C33.2655 66.7038 37.5655 60.9325 43.9055 56.7477C45.3188 55.8156 46.6589 55.0884 47.9122 54.5661C49.3455 53.9777 50.7789 53.4819 52.2189 53.0654C52.3218 53.0338 52.4152 52.9774 52.4908 52.9012C52.5664 52.8251 52.6219 52.7316 52.6522 52.6291C53.7456 48.7355 55.626 45.103 58.1789 41.9524C61.3972 37.8999 65.6153 34.7394 70.4256 32.7764ZM93.6391 102.621C92.5557 102.681 91.5366 103.151 90.7912 103.933C90.0457 104.714 89.6303 105.75 89.6303 106.826C89.6303 107.902 90.0457 108.937 90.7912 109.719C91.5366 110.501 92.5557 110.97 93.6391 111.03H117.879C118.456 111.062 119.033 110.977 119.576 110.781C120.118 110.584 120.615 110.279 121.035 109.886C121.454 109.492 121.789 109.018 122.017 108.492C122.246 107.966 122.364 107.399 122.364 106.826C122.364 106.253 122.246 105.686 122.017 105.16C121.789 104.634 121.454 104.159 121.035 103.766C120.615 103.372 120.118 103.068 119.576 102.871C119.033 102.674 118.456 102.589 117.879 102.621H93.6391ZM66.4123 71.6885C65.8354 70.7567 64.9156 70.0839 63.8474 69.8125C62.7793 69.5411 61.6466 69.6923 60.6889 70.2341C59.7311 70.776 59.0235 71.666 58.7155 72.7159C58.4076 73.7658 58.5236 74.8934 59.0389 75.86L67.519 90.5628L59.0789 104.684C58.7948 105.159 58.6079 105.685 58.5289 106.232C58.4498 106.779 58.4802 107.336 58.6183 107.872C58.7563 108.407 58.9993 108.91 59.3335 109.352C59.6676 109.794 60.0863 110.167 60.5656 110.449C61.0449 110.73 61.5755 110.916 62.1271 110.994C62.6786 111.072 63.2404 111.042 63.7802 110.905C64.32 110.768 64.8273 110.527 65.2732 110.196C65.7191 109.865 66.0949 109.45 66.379 108.974L76.0723 92.7444C76.4545 92.105 76.659 91.3766 76.6648 90.6334C76.6707 89.8901 76.4777 89.1586 76.1057 88.5134L66.4123 71.6885Z" fill="url(#paint0_linear_0_7)"/>
</g>
<defs>
<linearGradient id="paint0_linear_0_7" x1="89.9991" y1="30.5022" x2="89.9991" y2="149.5" gradientUnits="userSpaceOnUse">
<stop stop-color="#B1A7FF"/>
<stop offset="0.5" stop-color="#7A9DFF"/>
<stop offset="1" stop-color="#3941FF"/>
</linearGradient>
</defs>
</svg>
