<svg preserveAspectRatio="none" width="100%" height="100%" overflow="visible" style="display: block;" viewBox="0 0 123 118.657" fill="none" xmlns="http://www.w3.org/2000/svg">
<g id="Group">
<path id="Vector" d="M52.0108 86.731C36.1552 84.8169 24.9843 73.4521 24.9843 58.7378C24.9843 52.7564 27.1465 46.2964 30.75 41.9898C29.1885 38.042 29.4288 29.668 31.2305 26.1987C36.0351 25.6006 42.5215 28.1128 46.3652 31.582C50.9297 30.1465 55.7343 29.4287 61.6201 29.4287C67.5059 29.4287 72.3106 30.1465 76.6348 31.4624C80.3584 28.1128 86.9649 25.6006 91.7696 26.1987C93.4511 29.4287 93.6914 37.8028 92.1299 41.8701C95.9736 46.416 98.0156 52.5171 98.0156 58.7378C98.0156 73.4521 86.8448 84.5776 70.749 86.6114C74.8329 89.2431 77.5957 94.9854 77.5957 101.565V114.006C77.5957 117.595 80.5986 119.629 84.2022 118.193C105.943 109.939 123 88.2861 123 61.4892C123 27.6342 95.3731 2.98299e-07 61.3799 0C27.3867 -2.98299e-07 2.99518e-07 27.6342 0 61.4892C-2.34956e-07 88.0469 16.9365 110.059 39.7587 118.313C43.0019 119.509 46.125 117.356 46.125 114.126V104.556C44.4434 105.274 42.2813 105.752 40.3593 105.752C32.4316 105.752 27.747 101.445 24.3837 93.4301C23.0625 90.2003 21.6211 88.2861 18.8584 87.9272C17.4171 87.8076 16.9365 87.2095 16.9365 86.4917C16.9365 85.0561 19.3389 83.9795 21.7413 83.9795C25.2247 83.9795 28.2275 86.1329 31.3506 90.5591C33.753 94.0284 36.2753 95.5835 39.2783 95.5835C42.2813 95.5835 44.2031 94.5069 46.9658 91.7554C49.0078 89.7216 50.5693 87.9273 52.0108 86.731Z" fill="var(--fill-0, white)"/>
</g>
</svg>
