<svg width="132" height="48" viewBox="0 0 132 48" fill="none" xmlns="http://www.w3.org/2000/svg">
<g clip-path="url(#clip0_40002052_1316)">
<path d="M38.4402 22.4183C38.4402 22.4183 38.4402 22.4314 38.4402 22.4393L36.7045 29.9043C36.6108 30.3265 36.1856 30.6361 35.6936 30.6361H33.5994C33.4443 30.6361 33.3051 30.7383 33.2623 30.8852C31.3287 37.3875 28.7103 41.8571 25.2523 44.5403C22.3101 46.825 18.6835 47.8899 13.84 47.8899C9.48584 47.8899 6.55188 46.5023 4.06191 43.764C0.772237 40.1443 -0.589096 34.2191 0.234658 27.0793C1.72169 13.6761 8.73431 0.152149 22.2434 0.152149C26.3515 0.115428 29.5769 1.37182 31.8209 3.87936C34.1931 6.53116 35.3993 10.5259 35.4046 15.7535C35.3965 16.2282 34.9982 16.6112 34.5194 16.6112H24.6236C24.2734 16.6112 23.9604 16.299 23.9657 15.9554C23.8854 12.341 22.8023 10.5784 20.652 10.5784C16.8595 10.5784 14.6209 15.6826 13.4334 18.5128C11.7752 22.4655 10.9328 26.7568 11.0986 31.0321C11.1761 33.023 11.4998 35.8218 13.4067 36.981C15.097 38.0092 17.5094 37.3272 18.9697 36.1889C20.43 35.0504 21.6041 33.0808 22.0989 31.284C22.1684 31.0348 22.1739 30.8408 22.1069 30.7541C22.0374 30.665 21.8448 30.644 21.6978 30.644H19.1569C18.8841 30.644 18.614 30.5208 18.4508 30.3213C18.3145 30.1534 18.261 29.9462 18.3091 29.7418L20.0475 22.2635C20.1331 21.8808 20.4835 21.5921 20.9141 21.5398V21.5213H37.5897C37.63 21.5213 37.67 21.5213 37.7075 21.5292C38.1408 21.5843 38.4457 21.983 38.4376 22.4183H38.4402Z" fill="#0AE448"/>
<path d="M67.1541 13.8387C67.146 14.3056 66.7475 14.6885 66.2688 14.6885H57.1541C56.5576 14.6885 56.0574 14.2085 56.0574 13.6236C56.0574 10.9875 55.1374 9.70491 53.2547 9.70491C51.3717 9.70491 50.1574 10.8511 50.1227 12.8525C50.0826 15.0846 51.3556 17.1121 54.9823 20.598C59.7564 25.0361 61.6686 28.9679 61.5777 34.1639C61.4279 42.5679 55.6616 48 46.8892 48C42.4093 48 38.986 46.8118 36.71 44.4696C34.3992 42.0904 33.34 38.5993 33.5621 34.0931C33.5727 33.6262 33.9685 33.2459 34.4473 33.2459H43.875C44.1318 33.2459 44.3859 33.3691 44.5571 33.579C44.7041 33.76 44.7656 33.983 44.7283 34.1928C44.6238 35.819 44.9101 37.0334 45.5546 37.7049C45.9692 38.1403 46.5443 38.3607 47.2636 38.3607C49.0048 38.3607 50.0265 37.141 50.0638 35.0163C50.096 33.1803 49.5101 31.5699 46.3169 28.3148C42.1927 24.32 38.4938 20.1941 38.6088 13.7049C38.6758 9.94361 40.1841 6.5023 42.8561 4.01573C45.6802 1.38754 49.5451 0 54.0301 0C58.5234 0.0314753 61.9281 1.30098 64.1505 3.77442C66.2555 6.11934 67.2691 9.50558 67.1568 13.8387H67.1541Z" fill="#0AE448"/>
<path d="M95.4079 46.4184L95.4665 1.72599C95.4746 1.25649 95.0922 0.873535 94.6135 0.873535H80.5054C80.0319 0.873535 79.8234 1.27747 79.6869 1.54501L59.2617 46.1457V46.1536C59.2617 46.1536 59.2562 46.1613 59.2536 46.164C59.0263 46.7122 59.4568 47.2998 60.056 47.2998H69.9168C70.449 47.2998 70.8022 47.1398 70.976 46.8067L72.9337 42.143C73.1744 41.5213 73.22 41.4638 73.9046 41.4638H83.327C83.9821 41.4638 83.9957 41.4768 83.9849 42.1117L83.7736 46.4472C83.7656 46.9168 84.148 47.2998 84.6269 47.2998H94.5894C94.8434 47.2998 95.0816 47.1949 95.2392 47.0087C95.3809 46.8433 95.4398 46.6336 95.4079 46.4184ZM77.9538 31.4966C77.8629 31.4966 77.7906 31.4939 77.7319 31.4887C77.5847 31.4756 77.4857 31.3366 77.5232 31.1949C77.5419 31.1292 77.5688 31.0428 77.6088 30.9351L84.675 13.6106C84.7364 13.4401 84.814 13.2722 84.8943 13.1096C85.0093 12.8762 85.1483 12.8604 85.1911 13.0335C85.2286 13.1778 84.3807 30.8223 84.3807 30.8223C84.3139 31.4833 84.2845 31.5097 83.6266 31.5647L77.9618 31.4991H77.9485L77.9538 31.4966Z" fill="#0AE448"/>
<path d="M115.504 0.873411H108.015C107.619 0.873411 107.175 1.08062 107.071 1.54751C107.071 1.54751 96.6484 46.3896 96.6484 46.3948C96.603 46.6019 96.6511 46.8066 96.7901 46.977C96.9533 47.1763 97.2234 47.2997 97.4963 47.2997H106.857C107.36 47.2997 107.705 47.0557 107.798 46.6308C107.798 46.6308 108.932 41.5632 108.935 41.5476C109.015 41.1515 108.876 40.8446 108.518 40.6582C108.35 40.5718 108.181 40.4852 108.015 40.3987L106.392 39.5619L104.776 38.7279C104.568 38.6202 104.359 38.5128 104.153 38.4052C104.049 38.3528 103.985 38.2479 103.987 38.1325C103.99 37.9619 104.134 37.8229 104.308 37.8229L109.438 37.8466C110.973 37.8543 112.508 37.7469 114.017 37.4715C124.64 35.5279 131.695 27.095 131.899 15.6223C132.072 5.83079 126.558 0.868164 115.512 0.868164L115.504 0.873411ZM112.955 27.5619H112.754C112.305 27.5619 112.225 27.5121 112.211 27.4963C112.203 27.4859 115.169 14.5809 115.172 14.5626C115.247 14.1901 115.244 13.975 115.012 13.8491C114.715 13.6865 110.385 11.4229 110.385 11.4229C110.28 11.3678 110.219 11.2629 110.222 11.1475C110.224 10.9796 110.366 10.8406 110.54 10.8406H117.387C119.518 10.9062 120.706 12.7947 120.65 16.0209C120.551 21.6079 117.871 27.3652 112.955 27.5619Z" fill="#0AE448"/>
<path d="M123.121 47.2995C124.662 47.2995 125.868 46.1376 125.868 44.5716C125.868 43.0057 124.662 41.8438 123.121 41.8438C121.581 41.8438 120.361 43.0057 120.361 44.5716C120.361 46.1376 121.578 47.2995 123.121 47.2995ZM121.016 44.5611C121.016 43.2314 121.822 42.3605 123.121 42.3605C124.421 42.3605 125.213 43.2287 125.213 44.5611C125.213 45.8936 124.421 46.7697 123.121 46.7697C121.822 46.7697 121.016 45.9015 121.016 44.5611ZM121.915 46.0247H122.79V44.9756H123.044C123.699 44.9756 123.413 45.9015 123.573 46.0247H124.48V45.9801C124.309 45.9356 124.584 44.7736 123.825 44.6504V44.6371C124.194 44.5611 124.432 44.2988 124.432 43.9055C124.432 43.3415 124.017 43.0371 123.349 43.0371H121.91V46.0247H121.915ZM122.79 44.3435V43.643H123.089C123.389 43.643 123.56 43.7349 123.56 43.9919C123.56 44.228 123.389 44.3408 123.089 44.3408H122.79V44.3435Z" fill="#0AE448"/>
</g>
<defs>
<clipPath id="clip0_40002052_1316">
<rect width="132" height="48" fill="white"/>
</clipPath>
</defs>
</svg>
