<svg preserveAspectRatio="none" width="100%" height="100%" overflow="visible" style="display: block;" viewBox="0 0 114 113" fill="none" xmlns="http://www.w3.org/2000/svg">
<g id="Adobe_Illustrator_CC_icon 1" clip-path="url(#clip0_0_13)">
<path id="Vector" d="M94.5106 0H19.4894C8.72572 0 0 8.64918 0 19.3185V93.6815C0 104.351 8.72572 113 19.4894 113H94.5106C105.274 113 114 104.351 114 93.6815V19.3185C114 8.64918 105.274 0 94.5106 0Z" fill="var(--fill-0, #330000)"/>
<path id="Vector_2" d="M55.6822 29.8998H38.6232L19.0289 82.16H34.2958L36.8402 74.354H56.4391L58.9836 82.16H74.7156L55.6867 29.8998H55.6822ZM46.6351 61.3138H41.0856L46.6351 44.2779L52.1846 61.3138H46.6351Z" fill="var(--fill-0, #FF9A00)"/>
<path id="Vector_3" d="M90.7896 41.0145H76.6627V82.16H90.7896V41.0145Z" fill="var(--fill-0, #FF9A00)"/>
<path id="Vector_4" d="M91.2547 33.5746C91.2958 37.412 88.163 40.124 83.7307 40.0879C79.2938 40.124 76.1657 37.412 76.2067 33.5746C76.1657 29.7371 79.2984 27.0251 83.7307 27.0612C88.1676 27.0251 91.2958 29.7371 91.2547 33.5746Z" fill="var(--fill-0, #FF9A00)"/>
</g>
<defs>
<clipPath id="clip0_0_13">
<rect width="114" height="113" fill="white"/>
</clipPath>
</defs>
</svg>
