<svg preserveAspectRatio="none" width="100%" height="100%" overflow="visible" style="display: block;" viewBox="0 0 128 128" fill="none" xmlns="http://www.w3.org/2000/svg">
<g id="icons8-&#236;&#158;&#144;&#235;&#176;&#148;-&#236;&#138;&#164;&#237;&#129;&#172;&#235;&#166;&#189;&#237;&#138;&#184; 1">
<path id="Vector" d="M16 112V16H112V112H16Z" fill="var(--fill-0, #FFD600)"/>
<path id="Vector_2" d="M78.768 87.8587C80.6133 90.856 82.6187 93.728 86.8667 93.728C90.4347 93.728 92.3067 91.9547 92.3067 89.5013C92.3067 86.5653 90.3707 85.5227 86.4453 83.8133L84.2933 82.896C78.0827 80.2613 73.952 76.96 73.952 69.9867C73.952 63.56 78.872 58.6693 86.56 58.6693C92.0347 58.6693 95.968 60.5653 98.8053 65.5307L92.1013 69.816C90.6267 67.1813 89.032 66.144 86.56 66.144C84.0373 66.144 82.44 67.736 82.44 69.816C82.44 72.3867 84.04 73.4267 87.7333 75.0187L89.8853 75.936C97.2053 79.0533 101.333 82.2373 101.333 89.3947C101.333 97.1067 95.2427 101.333 87.0667 101.333C79.0693 101.333 74.528 97.32 72 92.352L78.768 87.8587ZM47.872 88.0773C49.2213 90.4933 51.272 92.352 54.2213 92.352C57.0427 92.352 58.6667 91.2373 58.6667 86.904V58.6667H67.5547V88.2693C67.5547 97.248 62.3467 101.333 54.7413 101.333C47.8693 101.333 42.9093 96.6773 40.888 92.352L47.872 88.0773Z" fill="var(--fill-0, #000001)"/>
</g>
</svg>
