<svg preserveAspectRatio="none" width="100%" height="100%" overflow="visible" style="display: block;" viewBox="0 0 128 48" fill="none" xmlns="http://www.w3.org/2000/svg">
<g id="Motion_Logo_0 1" clip-path="url(#clip0_0_51)">
<path id="Vector" d="M48.3307 0L23.04 47.9573H0L19.7493 10.512C22.8107 4.704 30.448 0 36.8107 0H48.3307ZM104.832 11.9893C104.832 5.36533 109.989 0 116.352 0C122.715 0 127.872 5.36533 127.872 11.9893C127.872 18.6133 122.715 23.9787 116.352 23.9787C109.989 23.9787 104.832 18.6133 104.832 11.9893ZM52.6507 0H75.6907L50.4 47.9573H27.36L52.6507 0ZM79.8613 0H102.901L83.1573 37.4453C80.096 43.2533 72.4533 47.9573 66.0907 47.9573H54.5707L79.8613 0Z" fill="var(--fill-0, black)"/>
</g>
<defs>
<clipPath id="clip0_0_51">
<rect width="128" height="48" fill="white"/>
</clipPath>
</defs>
</svg>
