<svg width="107" height="107" viewBox="0 0 107 107" fill="none" xmlns="http://www.w3.org/2000/svg">
<g clip-path="url(#clip0_40002052_1295)">
<path fill-rule="evenodd" clip-rule="evenodd" d="M53.4955 13.999C23.9502 13.999 0 38.288 0 68.2659V94.249H9.86183V91.6632C9.86183 79.5009 19.5721 69.6479 31.5561 69.6479C43.5401 69.6479 53.2503 79.5009 53.2503 91.6587V94.249H63.1122V91.6632C63.1122 73.977 48.9793 59.6524 31.5561 59.6524C25.0166 59.6443 18.6415 61.7007 13.3393 65.5284C18.725 54.6679 29.8129 47.2136 42.6217 47.2136C60.7091 47.2136 75.377 62.0955 75.377 80.4416V94.249H85.2389V80.4416C85.2389 56.5672 66.1572 37.2046 42.6172 37.2046C32.4237 37.1985 22.5746 40.8929 14.8998 47.6015C22.2203 33.5622 36.7545 23.9991 53.5 23.9991C77.6018 23.9991 97.1382 43.8208 97.1382 68.2703V94.249H107V68.2659C106.996 38.288 83.0454 13.999 53.4955 13.999Z" fill="white"/>
</g>
<defs>
<clipPath id="clip0_40002052_1295">
<rect width="107" height="107" fill="white"/>
</clipPath>
</defs>
</svg>
