<svg preserveAspectRatio="none" width="100%" height="100%" overflow="visible" style="display: block;" viewBox="0 0 105 110.179" fill="none" xmlns="http://www.w3.org/2000/svg">
<g id="Group">
<path id="Vector" d="M6.6611 4.84056L67.3122 0.271871C74.6745 -0.431005 76.6027 0.096152 81.3356 3.43481L100.793 17.1409C103.948 19.4252 105 20.1281 105 22.7639V97.7958C105 102.54 103.247 105.352 97.2871 105.703L26.8197 109.92C22.2621 110.096 20.1586 109.569 17.8798 106.582L3.68113 88.1313C1.05175 84.6169 0 82.1569 0 79.1696V12.3965C0 8.53066 1.75292 5.192 6.6611 4.84056Z" fill="var(--fill-0, white)"/>
<path id="Vector_2" fill-rule="evenodd" clip-rule="evenodd" d="M67.3122 0.271871L6.6611 4.84056C1.75292 5.192 0 8.53066 0 12.3965V79.1696C0 82.1569 1.05175 84.7926 3.68113 88.1313L17.8798 106.757C20.1586 109.745 22.4374 110.448 26.8197 110.096L97.2871 105.879C103.247 105.527 105 102.716 105 97.9716V22.7639C105 20.3038 104.124 19.6009 101.144 17.4923C100.968 17.3166 100.793 17.3166 100.618 17.1409L81.3356 3.61053C76.778 0.0961521 74.8497 -0.255286 67.3122 0.271871ZM28.3973 21.5339C22.6127 21.8853 21.3856 22.061 18.0551 19.2495L9.81636 12.7479C8.9399 11.8693 9.29048 10.815 11.5693 10.6393L69.9416 6.42203C74.8497 6.07059 77.3038 7.65206 79.2321 9.23353L89.2237 16.438C89.7496 16.6137 90.8013 17.8438 89.399 17.8438L29.0985 21.5339H28.3973ZM21.7362 97.2687V33.4827C21.7362 30.6712 22.6127 29.4412 25.0668 29.2655L94.3072 25.2239C96.586 25.0482 97.6377 26.454 97.6377 29.2655V92.5243C97.6377 95.3358 97.1118 97.6201 93.4307 97.7958L27.1703 101.662C23.4891 102.013 21.7362 100.607 21.7362 97.2687ZM87.1202 36.9971C87.4708 38.93 87.1202 40.8629 85.192 41.0386L82.0367 41.7415V88.8342C79.232 90.4156 76.778 91.1185 74.6745 91.1185C71.3439 91.1185 70.4674 90.0642 67.8381 86.9013L46.803 53.8661V85.6712L53.4641 87.2527C53.4641 87.2527 53.4641 91.1185 48.2053 91.1185L33.4808 91.9971C33.1302 91.1185 33.4808 89.0099 34.8831 88.6585L38.7396 87.6041V45.4316L33.4808 44.9045C33.1302 42.9716 34.182 40.1601 37.1619 39.9843L52.9382 38.93L74.6745 72.3166V42.7958L69.0651 42.093C68.7145 39.8086 70.2921 38.0514 72.3957 37.8757L87.1202 36.9971Z" fill="var(--fill-0, black)"/>
</g>
</svg>
