<svg preserveAspectRatio="none" width="100%" height="100%" overflow="visible" style="display: block;" viewBox="0 0 110 108.83" fill="none" xmlns="http://www.w3.org/2000/svg">
<g id="perplexity-color 1" clip-path="url(#clip0_0_57)">
<path id="Vector" d="M90.6813 0V32.9754H103.125V79.8992H89.6729V108.83L57.42 80.7426V108.608H52.4196V80.7109L20.13 108.83V79.5138H6.875V32.5945H20.0933V0L52.4196 29.4475V0.861569H57.4154V30.291L90.6813 0ZM57.42 41.0107V74.1993L84.6725 97.9332V65.4793L57.42 41.0107ZM52.3829 40.6479L25.1304 65.1256V97.9332L52.3829 74.1993V40.6525V40.6479ZM89.6729 75.02H98.1246V37.8592H61.6917L89.6729 62.9807V75.02ZM48.5054 37.4737H11.8708V74.6346H20.1208V62.9535L48.5008 37.4692L48.5054 37.4737ZM25.0938 11.2276V32.5855H48.5375L25.0938 11.2276ZM85.6808 11.2276L62.2371 32.5855H85.6808V11.2276Z" fill="var(--fill-0, #22B8CD)"/>
</g>
<defs>
<clipPath id="clip0_0_57">
<rect width="110" height="108.83" fill="white"/>
</clipPath>
</defs>
</svg>
