<svg preserveAspectRatio="none" width="100%" height="100%" overflow="visible" style="display: block;" viewBox="0 0 68.594 51.2308" fill="none" xmlns="http://www.w3.org/2000/svg">
<g id="Ps">
<path id="Vector" d="M0 49.618V0.806411C0 0.474359 0.1425 0.284615 0.475 0.284615C1.2825 0.284615 2.0425 0.284615 3.135 0.23718C4.275 0.189744 5.4625 0.189743 6.745 0.142307C8.0275 0.0948714 9.405 0.0948711 10.8775 0.0474352C12.35 -7.24521e-07 13.775 0 15.2 0C19.095 0 22.325 0.474358 24.985 1.47051C27.36 2.27692 29.545 3.60513 31.35 5.36026C32.87 6.87821 34.0575 8.7282 34.8175 10.7679C35.53 12.7603 35.91 14.8 35.91 16.9346C35.91 21.0141 34.96 24.3821 33.06 27.0385C31.16 29.6949 28.5 31.6872 25.4125 32.8256C22.1825 34.0115 18.62 34.4385 14.725 34.4385C13.585 34.4385 12.825 34.4385 12.35 34.391C11.875 34.3436 11.21 34.3436 10.3075 34.3436V49.5705C10.355 49.9026 10.1175 50.1872 9.785 50.2346C9.7375 50.2346 9.69 50.2346 9.595 50.2346H0.57C0.19 50.2346 0 50.0449 0 49.618ZM10.355 9.43974V25.3782C11.02 25.4256 11.6375 25.4731 12.2075 25.4731H14.725C16.5775 25.4731 18.43 25.1885 20.1875 24.6192C21.7075 24.1923 23.0375 23.291 24.0825 22.1051C25.08 20.9192 25.555 19.3064 25.555 17.2192C25.6025 15.7487 25.2225 14.2782 24.4625 12.9974C23.655 11.7641 22.515 10.8154 21.1375 10.2936C19.38 9.58205 17.48 9.29744 15.5325 9.34487C14.2975 9.34487 13.205 9.34487 12.3025 9.39231C11.3525 9.34487 10.6875 9.39231 10.355 9.43974Z" fill="var(--fill-0, #31A8FF)"/>
<path id="Vector_2" d="M65.55 22.4846C64.125 21.7256 62.605 21.2038 60.99 20.8718C59.2325 20.4923 57.475 20.2551 55.67 20.2551C54.72 20.2077 53.7225 20.35 52.82 20.5872C52.2025 20.7295 51.68 21.0615 51.3475 21.5359C51.11 21.9154 50.9675 22.3897 50.9675 22.8167C50.9675 23.2436 51.1575 23.6705 51.4425 24.05C51.87 24.5718 52.44 24.9987 53.0575 25.3308C54.15 25.9 55.29 26.4218 56.43 26.8962C58.995 27.75 61.465 28.9359 63.745 30.359C65.3125 31.3551 66.595 32.6833 67.4975 34.2962C68.2575 35.8141 68.6375 37.4744 68.59 39.1821C68.6375 41.4115 67.9725 43.641 66.7375 45.491C65.4075 47.3885 63.555 48.859 61.4175 49.7128C59.09 50.709 56.24 51.2308 52.82 51.2308C50.635 51.2308 48.4975 51.041 46.36 50.6141C44.6975 50.3295 43.035 49.8077 41.515 49.0962C41.1825 48.9064 40.945 48.5744 40.9925 48.1949V39.941C40.9925 39.7987 41.04 39.609 41.1825 39.5141C41.325 39.4192 41.4675 39.4667 41.61 39.5615C43.4625 40.6526 45.41 41.4115 47.5 41.8859C49.305 42.3603 51.205 42.5974 53.105 42.5974C54.91 42.5974 56.1925 42.3603 57.0475 41.9333C57.8075 41.6013 58.33 40.7949 58.33 39.941C58.33 39.2769 57.95 38.6603 57.19 38.0436C56.43 37.4269 54.8625 36.7154 52.535 35.8141C50.1125 34.9603 47.88 33.8218 45.79 32.3987C44.3175 31.3551 43.0825 29.9795 42.18 28.3667C41.42 26.8487 41.04 25.1885 41.0875 23.5282C41.0875 21.4885 41.6575 19.5436 42.7025 17.7885C43.89 15.891 45.6475 14.3731 47.69 13.4244C49.9225 12.2859 52.725 11.7641 56.0975 11.7641C58.045 11.7641 60.04 11.9064 61.9875 12.191C63.4125 12.3808 64.79 12.7603 66.0725 13.2821C66.2625 13.3295 66.4525 13.5192 66.5475 13.709C66.595 13.8987 66.6425 14.0885 66.6425 14.2782V22.0103C66.6425 22.2 66.5475 22.3897 66.405 22.4846C65.9775 22.5795 65.74 22.5795 65.55 22.4846Z" fill="var(--fill-0, #31A8FF)"/>
</g>
</svg>
