<svg width="124" height="124" viewBox="0 0 124 124" fill="none" xmlns="http://www.w3.org/2000/svg">
<path d="M113.662 62.0002C113.662 33.4647 90.5329 10.3335 62 10.3335C33.4671 10.3335 10.3359 33.4647 10.3359 62.0002C10.3359 90.5357 33.4671 113.667 61.9974 113.667C90.5278 113.667 113.662 90.5357 113.662 62.0002Z" fill="#E53935"/>
<path d="M62.0053 10.3335C90.5382 10.3335 113.667 33.4647 113.667 62.0002C113.667 71.4913 111.102 80.3832 106.635 88.0272L107.475 86.1672C112.587 74.8161 104.276 61.9692 91.8273 61.9769L71.2666 61.9924C66.1541 61.9976 62.0079 57.8513 62.0079 52.7415V32.142C62.0079 19.6852 49.1455 11.3849 37.7969 16.5154L36.1436 17.2646C43.7489 12.8574 52.5813 10.3335 62.0053 10.3335Z" fill="#FF9800"/>
<path d="M16.6703 59.4165H42.7464C47.6728 59.4165 51.6667 63.4103 51.6667 68.3368V94.4129C51.6667 99.3393 47.6728 103.333 42.7464 103.333H16.6703C11.7438 103.333 7.75 99.3393 7.75 94.4129V68.3368C7.75 63.4103 11.7438 59.4165 16.6703 59.4165Z" fill="#B71C1C"/>
<path d="M26.7863 85.6815V93.8862H21.1133V68.6909H29.8759C33.0121 68.6909 35.4017 69.3755 37.0395 70.7473C38.6903 72.1164 39.5169 74.1495 39.5169 76.8439C39.5169 79.621 38.5921 81.7858 36.7424 83.3436C34.9057 84.9013 32.4334 85.6789 29.3309 85.6789L26.7863 85.6815ZM26.7863 73.049V81.3234H29.1578C30.5631 81.3234 31.6455 80.9566 32.405 80.2178C33.1645 79.4789 33.5469 78.4197 33.5469 77.0377C33.5469 75.7615 33.1723 74.7772 32.4231 74.0849C31.6843 73.3952 30.6251 73.049 29.2456 73.049H26.7863Z" fill="white"/>
</svg>
