<svg preserveAspectRatio="none" width="100%" height="100%" overflow="visible" style="display: block;" viewBox="0 0 120 108" fill="none" xmlns="http://www.w3.org/2000/svg">
<g id="React-Logo-Filled-(1)">
<path id="Path" d="M60.2109 42.3984C53.863 42.3984 48.717 47.5454 48.717 53.8945C48.717 60.2436 53.863 65.3906 60.2109 65.3906C66.5588 65.3906 71.7047 60.2436 71.7047 53.8945C71.7047 47.5454 66.5588 42.3984 60.2109 42.3984Z" fill="var(--fill-0, #087EA4)"/>
<path id="Shape" d="M119.992 53.9988C119.992 44.9735 111.635 37.0578 98.3307 31.8484C98.5085 30.6753 98.6694 29.5148 98.7837 28.3755C100.096 15.4072 96.9719 6.04729 89.9915 2.01533C82.1815 -2.49522 71.15 0.778633 59.9958 9.70654C48.8415 0.778633 37.8101 -2.49522 30 2.01533C23.0196 6.04729 19.8956 15.4072 21.2078 28.3755C21.3221 29.5148 21.4788 30.6795 21.6608 31.8569C20.5517 32.2804 19.4638 32.7294 18.4182 33.1995C6.54014 38.5401 0 45.9349 0 53.9988C0 63.0241 8.35615 70.9398 21.6608 76.1492C21.4788 77.3223 21.3221 78.4828 21.2078 79.6221C19.8956 92.5904 23.0196 101.95 30 105.982C32.3999 107.343 35.1194 108.039 37.8778 107.998C44.4899 107.998 52.2111 104.517 59.9958 98.2911C67.7762 104.517 75.5016 107.998 82.1222 107.998C84.8806 108.039 87.5998 107.343 90 105.982C96.9804 101.95 100.104 92.5904 98.7922 79.6221C98.6779 78.4828 98.517 77.3223 98.3392 76.1492C111.644 70.9483 120 63.0199 120 53.9988M82.0714 5.71694C83.845 5.67414 85.5981 6.10387 87.1511 6.9621C91.998 9.7616 94.1738 17.3554 93.1156 27.7953C93.0436 28.5068 92.9589 29.2268 92.8573 29.951C87.3252 28.2842 81.6603 27.0954 75.9249 26.3977C72.4482 21.7738 68.5819 17.4564 64.3686 13.4929C70.9849 8.37668 77.1949 5.71694 82.0672 5.71694M79.794 65.434C77.6531 69.1518 75.3218 72.7566 72.8094 76.2339C68.5508 76.6716 64.2725 76.8893 59.9915 76.8861C55.712 76.8891 51.4351 76.6714 47.1779 76.2339C44.6723 72.7564 42.348 69.1517 40.2145 65.434C38.0737 61.7265 36.128 57.9096 34.3855 53.9988C36.128 50.0881 38.0737 46.2711 40.2145 42.5636C42.3446 38.8609 44.6617 35.269 47.1568 31.8019C51.4217 31.3533 55.7073 31.13 59.9958 31.1327C64.2753 31.1301 68.5522 31.3478 72.8094 31.7849C75.313 35.2574 77.6385 38.8549 79.7771 42.5636C81.9162 46.272 83.8618 50.0889 85.606 53.9988C83.8618 57.9087 81.9162 61.7256 79.7771 65.434M88.5184 61.1987C89.8619 64.864 90.9649 68.6131 91.8202 72.4222C88.1082 73.58 84.3241 74.4925 80.4925 75.1539C81.9486 72.9572 83.3597 70.6716 84.7256 68.297C86.0759 65.9507 87.3416 63.5832 88.5354 61.2157M51.9571 82.3454C54.5901 82.5063 57.2781 82.5995 60 82.5995C62.7219 82.5995 65.4268 82.5063 68.0641 82.3454C65.5636 85.3418 62.8698 88.1714 60 90.8159C57.1364 88.1718 54.4496 85.3422 51.9571 82.3454ZM39.5033 75.1454C35.6704 74.487 31.8849 73.5773 28.1713 72.4222C29.0232 68.6192 30.1219 64.8757 31.4604 61.2157C32.6372 63.5832 33.8987 65.9507 35.2702 68.297C36.6417 70.6434 38.0598 72.9558 39.5033 75.1539M31.4604 46.7777C30.1267 43.1312 29.0309 39.402 28.1798 35.6136C31.8842 34.4571 35.6595 33.5418 39.4822 32.8734C38.0344 35.063 36.6163 37.3331 35.249 39.7006C33.8818 42.0681 32.633 44.406 31.4393 46.7777M68.0387 25.648C65.4057 25.4871 62.7177 25.3939 59.9746 25.3939C57.2541 25.3939 54.5732 25.4786 51.9317 25.648C54.4242 22.6512 57.111 19.8216 59.9746 17.1775C62.8455 19.8209 65.5393 22.6505 68.0387 25.648ZM84.7171 39.7006C83.3456 37.3232 81.9275 35.0362 80.4628 32.8395C84.3046 33.5009 88.0986 34.4149 91.8202 35.5755C90.9663 39.378 89.8677 43.1213 88.5311 46.7819C87.3543 44.4144 86.0886 42.0469 84.7213 39.7048M26.8929 27.7995C25.8219 17.3639 28.0104 9.76584 32.8531 6.96634C34.4066 6.10943 36.1594 5.67979 37.9328 5.72117C42.8051 5.72117 49.0151 8.38091 55.6314 13.4971C51.4153 17.4635 47.5462 21.7837 44.0666 26.4104C38.3329 27.1114 32.6686 28.2958 27.1342 29.951C27.0368 29.2268 26.9479 28.5111 26.8802 27.7995M20.7634 38.4131C21.4153 38.1307 22.0799 37.8484 22.7572 37.566C24.0887 43.1864 25.8942 48.6837 28.1544 53.9988C25.89 59.3243 24.0829 64.8331 22.7529 70.4655C11.967 66.0396 5.71469 59.907 5.71469 53.9988C5.71469 48.3998 11.2177 42.7203 20.7634 38.4131ZM32.8531 101.031C28.0104 98.2318 25.8219 90.6337 26.8929 80.1981C26.9606 79.4866 27.0495 78.7708 27.1469 78.0423C32.6792 79.7087 38.344 80.8976 44.0793 81.5957C47.5572 86.2213 51.4233 90.5414 55.6357 94.509C46.4117 101.637 37.9836 103.987 32.8658 101.031M93.1113 80.1981C94.1696 90.638 91.9938 98.2318 87.1469 101.031C82.0333 103.996 73.601 101.637 64.3813 94.509C68.5922 90.5413 72.4569 86.2212 75.9334 81.5957C81.6687 80.898 87.3337 79.7092 92.8658 78.0423C92.9674 78.7708 93.0521 79.4866 93.124 80.1981M97.264 70.457C95.9302 64.828 94.1219 59.3222 91.8583 53.9988C94.1209 48.6726 95.9278 43.164 97.2598 37.5322C108.025 41.958 114.294 48.0906 114.294 53.9988C114.294 59.907 108.041 66.0396 97.2555 70.4655" fill="var(--fill-0, #087EA4)"/>
</g>
</svg>
