<svg preserveAspectRatio="none" width="100%" height="100%" overflow="visible" style="display: block;" viewBox="0 0 120 119" fill="none" xmlns="http://www.w3.org/2000/svg">
<g id="icons8-&#235;&#185;&#132;&#236;&#163;&#188;&#236;&#150;&#188;-&#236;&#138;&#164;&#237;&#138;&#156;&#235;&#148;&#148;&#236;&#152;&#164;-&#236;&#189;&#148;&#235;&#147;&#156;-2019 1">
<path id="Vector" d="M110 27.5435V91.4564C110 94.605 108.025 97.4064 105.05 98.4477L83 108.711L85 81.8125V37.1875L83 10.2885L105.05 20.5523C108.025 21.5935 110 24.395 110 27.5435Z" fill="var(--fill-0, #29B6F6)"/>
<path id="Vector_2" d="M22.5 84.0338L85 37.1875V13.271C85 10.3009 81.295 8.9126 79.3125 11.1389L11.645 72.4884C9.395 74.5461 9.5225 78.1086 11.9125 80.0052C11.9125 80.0052 15.2225 83.0595 16.42 83.9074C18.26 85.209 20.6775 85.3577 22.5 84.0338Z" fill="var(--fill-0, #0277BD)"/>
<path id="Vector_3" d="M22.5 34.9662L85 81.8125V105.729C85 108.699 81.295 110.087 79.3125 107.861L11.645 46.5116C9.395 44.4539 9.5225 40.8914 11.9125 38.9948C11.9125 38.9948 15.2225 35.9405 16.42 35.0926C18.26 33.791 20.6775 33.6423 22.5 34.9662Z" fill="var(--fill-0, #0288D1)"/>
</g>
</svg>
